<svg xmlns="http://www.w3.org/2000/svg" width="36" height="36"><path fill="#b3b3b3" d="M18.405 2.387c-.445 0-.831.163-1.156.488l-8.556 8.556H1.961c-.446 0-.831.163-1.156.488s-.488.711-.488 1.156v9.865c0 .445.163.831.488 1.156s.711.488 1.156.488h6.732l8.556 8.556c.326.325.711.488 1.156.488s.831-.163 1.156-.488.488-.711.488-1.156V4.029c0-.445-.163-.831-.488-1.156s-.711-.488-1.156-.488zm13.497 16.292l3.468-3.468c.22-.22.33-.488.33-.802s-.11-.582-.33-.802l-1.604-1.604c-.22-.22-.488-.33-.802-.33s-.582.11-.802.33l-3.468 3.468-3.468-3.468c-.22-.22-.488-.33-.802-.33s-.582.11-.802.33l-1.604 1.604c-.22.22-.33.488-.33.802s.11.582.33.802l3.468 3.468-3.468 3.468c-.22.22-.33.488-.33.802s.11.582.33.802l1.604 1.604c.22.22.488.33.802.33s.582-.11.802-.33l3.468-3.468 3.468 3.468c.22.22.487.33.802.33s.582-.11.802-.33l1.604-1.604c.22-.22.33-.488.33-.802s-.11-.582-.33-.802l-3.468-3.468z"/></svg>