<svg id="marker" data-name="marker" xmlns="http://www.w3.org/2000/svg" width="20" height="48"><g id="mapbox-marker-icon"><g id="icon"><ellipse id="shadow" cx="10" cy="27" rx="9" ry="5" fill="#c4c4c4" opacity=".3" style="isolation:isolate"/><g id="mask" opacity=".3"><g id="group"><path id="shadow-2" data-name="shadow" fill="#bfbfbf" d="M10 32c5 0 9-2.2 9-5s-4-5-9-5-9 2.2-9 5 4 5 9 5z" fill-rule="evenodd"/></g></g><path id="color" fill="#7e7e7e" stroke="#23374d" stroke-width=".5" d="M19.25 10.4a13.066 13.066 0 01-1.46 5.223 41.528 41.528 0 01-3.247 5.549 71.377 71.377 0 01-4.542 5.945l-.217-.258a73.206 73.206 0 01-4.327-5.725 42.268 42.268 0 01-3.246-5.553A12.978 12.978 0 01.75 10.4 9.466 9.466 0 0110 .75a9.466 9.466 0 019.25 9.65z"/><path id="circle" fill="#fff" stroke="#23374d" stroke-width=".7" d="M13.55 10A4.55 4.55 0 1112 6.45 3.548 3.548 0 0113.55 10z"/></g></g><path fill="none" d="M0 0h20v48H0z"/></svg>