<svg width="22" height="22" viewBox="0 0 22 22" fill="none" xmlns="http://www.w3.org/2000/svg">
<g filter="url(#filter0_d_938_2114)">
<path fill-rule="evenodd" clip-rule="evenodd" d="M7.63296 6.81413C8.11296 6.63613 9.05996 6.74513 9.30996 7.28713C9.52296 7.74913 9.70596 8.52813 9.71596 8.36213C9.73996 7.99313 9.69196 7.19513 9.85296 6.77813C9.96996 6.47413 10.2 6.18813 10.539 6.08713C10.824 6.00113 11.159 5.97113 11.455 6.03213C11.768 6.09613 12.097 6.31913 12.22 6.53113C12.582 7.15413 12.588 8.43013 12.605 8.36213C12.669 8.09013 12.675 7.13313 12.888 6.77813C13.029 6.54313 13.385 6.33313 13.575 6.29913C13.869 6.24713 14.231 6.23113 14.539 6.29113C14.788 6.34013 15.125 6.63513 15.216 6.77813C15.435 7.12213 15.558 8.09413 15.595 8.43613C15.611 8.57713 15.669 8.04313 15.888 7.70013C16.294 7.06113 17.732 6.93713 17.786 8.33913C17.812 8.99313 17.806 8.96313 17.806 9.40313C17.806 9.91913 17.794 10.2311 17.766 10.6051C17.736 11.0041 17.65 11.9091 17.525 12.3471C17.439 12.6481 17.154 13.3251 16.872 13.7311C16.872 13.7311 15.798 14.9811 15.681 15.5431C15.564 16.1061 15.603 16.1101 15.579 16.5081C15.556 16.9071 15.7 17.4311 15.7 17.4311C15.7 17.4311 14.899 17.5351 14.466 17.4651C14.075 17.4031 13.591 16.6251 13.466 16.3871C13.294 16.0591 12.927 16.1221 12.784 16.3641C12.56 16.7471 12.075 17.4341 11.734 17.4771C11.065 17.5611 9.67896 17.5071 8.59396 17.4971C8.59396 17.4971 8.77896 16.4861 8.36696 16.1391C8.06196 15.8791 7.53696 15.3551 7.22296 15.0791L6.39096 14.1581C6.10796 13.7981 5.38896 13.2291 5.14796 12.1731C4.93496 11.2371 4.95596 10.7781 5.18496 10.4031C5.41696 10.0221 5.85496 9.81413 6.03896 9.77813C6.24696 9.73613 6.73096 9.73913 6.91396 9.84013C7.13696 9.96313 7.22696 9.99913 7.40196 10.2311C7.63196 10.5381 7.71396 10.6871 7.61496 10.3521C7.53896 10.0901 7.29296 9.75713 7.18096 9.38213C7.07196 9.02113 6.77996 8.43913 6.80096 7.85613C6.80896 7.63513 6.90396 7.08513 7.63296 6.81413Z" fill="white"/>
<path fill-rule="evenodd" clip-rule="evenodd" d="M7.63296 6.81413C8.11296 6.63613 9.05996 6.74513 9.30996 7.28713C9.52296 7.74913 9.70596 8.52813 9.71596 8.36213C9.73996 7.99313 9.69196 7.19513 9.85296 6.77813C9.96996 6.47413 10.2 6.18813 10.539 6.08713C10.824 6.00113 11.159 5.97113 11.455 6.03213C11.768 6.09613 12.097 6.31913 12.22 6.53113C12.582 7.15413 12.588 8.43013 12.605 8.36213C12.669 8.09013 12.675 7.13313 12.888 6.77813C13.029 6.54313 13.385 6.33313 13.575 6.29913C13.869 6.24713 14.231 6.23113 14.539 6.29113C14.788 6.34013 15.125 6.63513 15.216 6.77813C15.435 7.12213 15.558 8.09413 15.595 8.43613C15.611 8.57713 15.669 8.04313 15.888 7.70013C16.294 7.06113 17.732 6.93713 17.786 8.33913C17.812 8.99313 17.806 8.96313 17.806 9.40313C17.806 9.91913 17.794 10.2311 17.766 10.6051C17.736 11.0041 17.65 11.9091 17.525 12.3471C17.439 12.6481 17.154 13.3251 16.872 13.7311C16.872 13.7311 15.798 14.9811 15.681 15.5431C15.564 16.1061 15.603 16.1101 15.579 16.5081C15.556 16.9071 15.7 17.4311 15.7 17.4311C15.7 17.4311 14.899 17.5351 14.466 17.4651C14.075 17.4031 13.591 16.6251 13.466 16.3871C13.294 16.0591 12.927 16.1221 12.784 16.3641C12.56 16.7471 12.075 17.4341 11.734 17.4771C11.065 17.5611 9.67896 17.5071 8.59396 17.4971C8.59396 17.4971 8.77896 16.4861 8.36696 16.1391C8.06196 15.8791 7.53696 15.3551 7.22296 15.0791L6.39096 14.1581C6.10796 13.7981 5.38896 13.2291 5.14796 12.1731C4.93496 11.2371 4.95596 10.7781 5.18496 10.4031C5.41696 10.0221 5.85496 9.81413 6.03896 9.77813C6.24696 9.73613 6.73096 9.73913 6.91396 9.84013C7.13696 9.96313 7.22696 9.99913 7.40196 10.2311C7.63196 10.5381 7.71396 10.6871 7.61496 10.3521C7.53896 10.0901 7.29296 9.75713 7.18096 9.38213C7.07196 9.02113 6.77996 8.43913 6.80096 7.85613C6.80896 7.63513 6.90396 7.08513 7.63296 6.81413Z" stroke="black" stroke-width="0.75" stroke-linejoin="round"/>
<path d="M14.6262 14.5124V11.0534" stroke="black" stroke-width="0.75" stroke-linecap="round"/>
<path d="M12.6105 14.5241L12.5945 11.0511" stroke="black" stroke-width="0.75" stroke-linecap="round"/>
<path d="M10.6145 11.0827L10.6355 14.5087" stroke="black" stroke-width="0.75" stroke-linecap="round"/>
<path fill-rule="evenodd" clip-rule="evenodd" d="M6.28548 14.309C6.00148 13.95 5.65648 13.216 5.04247 12.325C4.69447 11.821 3.83148 10.872 3.57448 10.39C3.35148 9.96403 3.37548 9.77303 3.42848 9.42003C3.52248 8.79203 4.16648 8.30303 4.85348 8.36903C5.37248 8.41803 5.81248 8.76103 6.20848 9.08503C6.44748 9.28003 6.74148 9.65903 6.91848 9.87303C7.08148 10.069 7.12147 10.15 7.29548 10.382C7.52548 10.689 7.59748 10.841 7.50948 10.503C7.43848 10.007 7.32247 9.16003 7.15447 8.41103C7.02647 7.84303 6.99548 7.75403 6.87348 7.31803C6.74448 6.85403 6.67848 6.52903 6.55748 6.03703C6.47347 5.68903 6.32247 4.97803 6.28148 4.57803C6.22448 4.03103 6.19447 3.13903 6.54548 2.72903C6.82048 2.40803 7.45148 2.31103 7.84247 2.50903C8.35448 2.76803 8.64547 3.51203 8.77847 3.80903C9.01747 4.34303 9.16547 4.96003 9.29448 5.77003C9.45848 6.80103 9.76047 8.23203 9.77047 8.53303C9.79448 8.16403 9.70248 7.38703 9.76648 7.03303C9.82448 6.71203 10.0945 6.33903 10.4325 6.23803C10.7185 6.15303 11.0535 6.12203 11.3485 6.18303C11.6615 6.24703 11.9915 6.47103 12.1145 6.68203C12.4765 7.30603 12.4835 8.58103 12.4985 8.51303C12.5845 8.13703 12.5695 7.28403 12.7825 6.92903C12.9225 6.69503 13.2795 6.48403 13.4695 6.45003C13.7635 6.39803 14.1245 6.38203 14.4335 6.44203C14.6825 6.49103 15.0195 6.78703 15.1105 6.92903C15.3285 7.27303 15.4525 8.24603 15.4895 8.58703C15.5045 8.72803 15.5635 8.19503 15.7825 7.85103C16.1885 7.21203 17.6255 7.08803 17.6805 8.49003C17.7055 9.14403 17.7005 9.11403 17.7005 9.55403C17.7005 10.071 17.6885 10.382 17.6605 10.756C17.6295 11.156 17.5435 12.06 17.4185 12.498C17.3325 12.799 17.0475 13.476 16.7665 13.882C16.7665 13.882 15.6925 15.132 15.5755 15.695C15.4575 16.257 15.4965 16.261 15.4735 16.66C15.4505 17.058 15.5945 17.582 15.5945 17.582C15.5945 17.582 14.7925 17.686 14.3605 17.617C13.9695 17.554 13.4855 16.776 13.3605 16.538C13.1885 16.21 12.8215 16.273 12.6785 16.515C12.4535 16.898 11.9695 17.585 11.6275 17.628C10.9595 17.712 9.57347 17.659 8.48847 17.648C8.48847 17.648 8.67348 16.637 8.26148 16.29C7.95648 16.031 7.43148 15.506 7.11748 15.23L6.28548 14.309Z" fill="white"/>
<path fill-rule="evenodd" clip-rule="evenodd" d="M6.28548 14.309C6.00148 13.95 5.65648 13.216 5.04247 12.325C4.69447 11.821 3.83148 10.872 3.57448 10.39C3.35148 9.96403 3.37548 9.77303 3.42848 9.42003C3.52248 8.79203 4.16648 8.30303 4.85348 8.36903C5.37248 8.41803 5.81248 8.76103 6.20848 9.08503C6.44748 9.28003 6.74148 9.65903 6.91848 9.87303C7.08148 10.069 7.12148 10.15 7.29548 10.382C7.52548 10.689 7.59748 10.841 7.50948 10.503C7.43848 10.007 7.32247 9.16003 7.15447 8.41103C7.02647 7.84303 6.99548 7.75403 6.87348 7.31803C6.74448 6.85403 6.67848 6.52903 6.55748 6.03703C6.47348 5.68903 6.32248 4.97803 6.28148 4.57803C6.22448 4.03103 6.19447 3.13903 6.54548 2.72903C6.82048 2.40803 7.45147 2.31103 7.84247 2.50903C8.35447 2.76803 8.64547 3.51203 8.77847 3.80903C9.01747 4.34303 9.16548 4.96003 9.29448 5.77003C9.45848 6.80103 9.76047 8.23203 9.77047 8.53303C9.79447 8.16403 9.70248 7.38703 9.76648 7.03303C9.82448 6.71203 10.0945 6.33903 10.4325 6.23803C10.7185 6.15303 11.0535 6.12203 11.3485 6.18303C11.6615 6.24703 11.9915 6.47103 12.1145 6.68203C12.4765 7.30603 12.4835 8.58103 12.4985 8.51303C12.5845 8.13703 12.5695 7.28403 12.7825 6.92903C12.9225 6.69503 13.2795 6.48403 13.4695 6.45003C13.7635 6.39803 14.1245 6.38203 14.4335 6.44203C14.6825 6.49103 15.0195 6.78703 15.1105 6.92903C15.3285 7.27303 15.4525 8.24603 15.4895 8.58703C15.5045 8.72803 15.5635 8.19503 15.7825 7.85103C16.1885 7.21203 17.6255 7.08803 17.6805 8.49003C17.7055 9.14403 17.7005 9.11403 17.7005 9.55403C17.7005 10.071 17.6885 10.382 17.6605 10.756C17.6295 11.156 17.5435 12.06 17.4185 12.498C17.3325 12.799 17.0475 13.476 16.7665 13.882C16.7665 13.882 15.6925 15.132 15.5755 15.695C15.4575 16.257 15.4965 16.261 15.4735 16.66C15.4505 17.058 15.5945 17.582 15.5945 17.582C15.5945 17.582 14.7925 17.686 14.3605 17.617C13.9695 17.554 13.4855 16.776 13.3605 16.538C13.1885 16.21 12.8215 16.273 12.6785 16.515C12.4535 16.898 11.9695 17.585 11.6275 17.628C10.9595 17.712 9.57347 17.659 8.48847 17.648C8.48847 17.648 8.67348 16.637 8.26148 16.29C7.95648 16.031 7.43148 15.506 7.11748 15.23L6.28548 14.309Z" stroke="black" stroke-width="0.75" stroke-linecap="round" stroke-linejoin="round"/>
<path d="M14.5205 14.6635V11.2045" stroke="black" stroke-width="0.75" stroke-linecap="round"/>
<path d="M12.5048 14.6752L12.4888 11.2022" stroke="black" stroke-width="0.75" stroke-linecap="round"/>
<path d="M10.5088 11.2338L10.5298 14.6598" stroke="black" stroke-width="0.75" stroke-linecap="round"/>
<path fill-rule="evenodd" clip-rule="evenodd" d="M7.50434 10.5034C7.40634 10.1284 7.30834 9.65636 7.09834 8.95136C6.93134 8.39436 6.75634 8.09236 6.62834 7.71836C6.47334 7.26336 6.32534 6.99736 6.13234 6.53736C5.99334 6.20836 5.76834 5.48936 5.67534 5.09736C5.55634 4.58836 5.70834 4.17336 5.91934 3.89136C6.17234 3.55236 6.88134 3.40136 7.27634 3.54036C7.64734 3.67036 8.02034 4.05236 8.19234 4.32836C8.48034 4.78836 8.54934 4.96036 8.90934 5.87036C9.30234 6.86236 9.47334 7.78836 9.52034 8.10136L9.60534 8.55336C9.60434 8.51336 9.56234 7.43136 9.56134 7.39136C9.52634 6.36236 9.50134 5.56836 9.52334 4.45236C9.52534 4.32636 9.58734 3.86536 9.60734 3.73736C9.68534 3.23736 9.91234 2.93736 10.2803 2.75836C10.6923 2.55736 11.2063 2.54336 11.6813 2.74136C12.1043 2.91436 12.3073 3.29136 12.3683 3.76336C12.3823 3.87236 12.4623 4.75036 12.4613 4.87036C12.4483 5.89536 12.4673 6.51136 12.4763 7.04436C12.4803 7.27536 12.4793 8.66936 12.4933 8.51336C12.5543 7.85736 12.5873 5.32436 12.8373 4.57136C12.9813 4.13836 13.2423 3.82536 13.6313 3.64236C14.0623 3.43936 14.7443 3.57236 15.0353 3.88536C15.3203 4.19036 15.4813 4.57736 15.5173 5.03836C15.5493 5.44336 15.4983 5.93536 15.4973 6.28336C15.4973 7.15036 15.4763 7.60736 15.4603 8.40436C15.4593 8.44236 15.4453 8.70236 15.4833 8.58636C15.5773 8.30636 15.6713 8.04436 15.7493 7.84136C15.7983 7.71636 15.9903 7.22736 16.1083 6.98236C16.2223 6.74836 16.3193 6.61336 16.5233 6.29436C16.7233 5.98136 16.9383 5.84636 17.1913 5.73336C17.7313 5.49836 18.3003 5.84536 18.4923 6.32436C18.5783 6.53936 18.5013 7.03736 18.4643 7.42936C18.4033 8.07636 18.2103 8.73536 18.1123 9.07736C17.9843 9.52436 17.8383 10.3124 17.7723 10.6784C17.7003 11.0724 17.5383 12.0604 17.4133 12.4984C17.3273 12.7994 17.0423 13.4764 16.7613 13.8824C16.7613 13.8824 15.6873 15.1324 15.5693 15.6944C15.4523 16.2574 15.4913 16.2614 15.4683 16.6594C15.4443 17.0584 15.5893 17.5824 15.5893 17.5824C15.5893 17.5824 14.7873 17.6864 14.3553 17.6164C13.9643 17.5544 13.4803 16.7754 13.3553 16.5384C13.1833 16.2104 12.8163 16.2734 12.6733 16.5154C12.4483 16.8984 11.9643 17.5854 11.6223 17.6284C10.9543 17.7124 9.56834 17.6584 8.48334 17.6484C8.48334 17.6484 8.66834 16.6374 8.25634 16.2904C7.95134 16.0304 7.42634 15.5064 7.11234 15.2304L6.28034 14.3094C5.99634 13.9494 5.65134 13.2164 5.03734 12.3244C4.68934 11.8204 4.01034 11.2394 3.75334 10.7454C3.53034 10.3204 3.42234 9.79136 3.56334 9.42036C3.78834 8.82636 4.23834 8.52336 4.92534 8.58836C5.44434 8.63836 5.77334 8.79436 6.16334 9.12536C6.38834 9.31536 6.73634 9.65936 6.91334 9.87336C7.07634 10.0684 7.11634 10.1494 7.29034 10.3824C7.52034 10.6894 7.59234 10.8414 7.50434 10.5034Z" fill="white"/>
<path d="M7.50434 10.5034C7.40634 10.1284 7.30834 9.65636 7.09834 8.95136C6.93134 8.39436 6.75634 8.09236 6.62834 7.71836C6.47334 7.26336 6.32534 6.99736 6.13234 6.53736C5.99334 6.20836 5.76834 5.48936 5.67534 5.09736C5.55634 4.58836 5.70834 4.17336 5.91934 3.89136C6.17234 3.55236 6.88134 3.40136 7.27634 3.54036C7.64734 3.67036 8.02034 4.05236 8.19234 4.32836C8.48034 4.78836 8.54934 4.96036 8.90934 5.87036C9.30234 6.86236 9.47334 7.78836 9.52034 8.10136L9.60534 8.55336C9.60434 8.51336 9.56234 7.43136 9.56134 7.39136C9.52634 6.36236 9.50134 5.56836 9.52334 4.45236C9.52534 4.32636 9.58734 3.86536 9.60734 3.73736C9.68534 3.23736 9.91234 2.93736 10.2803 2.75836C10.6923 2.55736 11.2063 2.54336 11.6813 2.74136C12.1043 2.91436 12.3073 3.29136 12.3683 3.76336C12.3823 3.87236 12.4623 4.75036 12.4613 4.87036C12.4483 5.89536 12.4673 6.51136 12.4763 7.04436C12.4803 7.27536 12.4793 8.66936 12.4933 8.51336C12.5543 7.85736 12.5873 5.32436 12.8373 4.57136C12.9813 4.13836 13.2423 3.82536 13.6313 3.64236C14.0623 3.43936 14.7443 3.57236 15.0353 3.88536C15.3203 4.19036 15.4813 4.57736 15.5173 5.03836C15.5493 5.44336 15.4983 5.93536 15.4973 6.28336C15.4973 7.15036 15.4763 7.60736 15.4603 8.40436C15.4593 8.44236 15.4453 8.70236 15.4833 8.58636C15.5773 8.30636 15.6713 8.04436 15.7493 7.84136C15.7983 7.71636 15.9903 7.22736 16.1083 6.98236C16.2223 6.74836 16.3193 6.61336 16.5233 6.29436C16.7233 5.98136 16.9383 5.84636 17.1913 5.73336C17.7313 5.49836 18.3003 5.84536 18.4923 6.32436C18.5783 6.53936 18.5013 7.03736 18.4643 7.42936C18.4033 8.07636 18.2103 8.73536 18.1123 9.07736C17.9843 9.52436 17.8383 10.3124 17.7723 10.6784C17.7003 11.0724 17.5383 12.0604 17.4133 12.4984C17.3273 12.7994 17.0423 13.4764 16.7613 13.8824C16.7613 13.8824 15.6873 15.1324 15.5693 15.6944C15.4523 16.2574 15.4913 16.2614 15.4683 16.6594C15.4443 17.0584 15.5893 17.5824 15.5893 17.5824C15.5893 17.5824 14.7873 17.6864 14.3553 17.6164C13.9643 17.5544 13.4803 16.7754 13.3553 16.5384C13.1833 16.2104 12.8163 16.2734 12.6733 16.5154C12.4483 16.8984 11.9643 17.5854 11.6223 17.6284C10.9543 17.7124 9.56834 17.6584 8.48334 17.6484C8.48334 17.6484 8.66834 16.6374 8.25634 16.2904C7.95134 16.0304 7.42634 15.5064 7.11234 15.2304L6.28034 14.3094C5.99634 13.9494 5.65134 13.2164 5.03734 12.3244C4.68934 11.8204 4.01034 11.2394 3.75334 10.7454C3.53034 10.3204 3.42234 9.79136 3.56334 9.42036C3.78834 8.82636 4.23834 8.52336 4.92534 8.58836C5.44434 8.63836 5.77334 8.79436 6.16334 9.12536C6.38834 9.31536 6.73634 9.65936 6.91334 9.87336C7.07634 10.0684 7.11634 10.1494 7.29034 10.3824C7.52034 10.6894 7.59234 10.8414 7.50434 10.5034" stroke="black" stroke-width="0.75" stroke-linecap="round" stroke-linejoin="round"/>
<path d="M14.5151 14.6636V11.2046" stroke="black" stroke-width="0.75" stroke-linecap="round"/>
<path d="M12.4994 14.6753L12.4834 11.2023" stroke="black" stroke-width="0.75" stroke-linecap="round"/>
<path d="M10.5034 11.2339L10.5244 14.6599" stroke="black" stroke-width="0.75" stroke-linecap="round"/>
</g>
<defs>
<filter id="filter0_d_938_2114" x="0.4" y="0.4" width="21.2" height="22.2" filterUnits="userSpaceOnUse" color-interpolation-filters="sRGB">
<feFlood flood-opacity="0" result="BackgroundImageFix"/>
<feColorMatrix in="SourceAlpha" type="matrix" values="0 0 0 0 0 0 0 0 0 0 0 0 0 0 0 0 0 0 127 0" result="hardAlpha"/>
<feOffset dy="1"/>
<feGaussianBlur stdDeviation="1.3"/>
<feColorMatrix type="matrix" values="0 0 0 0 0 0 0 0 0 0 0 0 0 0 0 0 0 0 0.32 0"/>
<feBlend mode="normal" in2="BackgroundImageFix" result="effect1_dropShadow_938_2114"/>
<feBlend mode="normal" in="SourceGraphic" in2="effect1_dropShadow_938_2114" result="shape"/>
</filter>
</defs>
</svg>
