<svg id="Capa_1" enable-background="new 0 0 513.065 513.065" height="32" viewBox="0 0 513.065 513.065" width="32" xmlns="http://www.w3.org/2000/svg"><g><path d="m138.515 436.855h88.935l-44.467-62.074z"/><path d="m327.567 323.265 53.444-74.606c.107-.15.228-.283.34-.427l-53.746-75.339-53.879 75.213z"/><path d="m201.434 349.023 53.841 75.16 53.84-75.16-53.84-75.16z"/><path d="m309.183 147.094c.003-.004.007-.008.01-.013l-49.643-69.588c-.755-1.059-1.77-1.282-2.488-1.283-.001 0-.002 0-.003 0-.718 0-1.73.222-2.487 1.278l-51.534 71.939 52.236 72.92z"/><path d="m.607 432.014c-.722 1.007-.801 2.077-.234 3.18.566 1.102 1.482 1.661 2.721 1.661h79.771l-42.863-59.835z"/><path d="m236.823 248.106-52.236-72.92-53.841 75.159 52.236 72.92z"/><path d="m509.971 436.855c1.238 0 2.153-.558 2.72-1.659s.49-2.169-.229-3.177l-40.572-56.873-44.205 61.709z"/><path d="m399.86 424.183 53.617-74.848-53.729-75.316-53.729 75.004z"/><path d="m283.1 436.855h88.934l-44.467-62.074z"/><path d="m164.531 349.023-52.236-72.92-53.841 75.16 52.236 72.92z"/></g></svg>